    <svg xmlns="http://www.w3.org/2000/svg" class="hiden">
        <symbol viewBox="0 0 24 24" id="telegram">
            <path d="M12 4C10.4178 4 8.87103 4.46919 7.55544 5.34824C6.23985 6.22729 5.21447 7.47672 4.60897 8.93853C4.00347 10.4003 3.84504 12.0089 4.15372 13.5607C4.4624 15.1126 5.22433 16.538 6.34315 17.6569C7.46197 18.7757 8.88743 19.5376 10.4393 19.8463C11.9911 20.155 13.5997 19.9965 15.0615 19.391C16.5233 18.7855 17.7727 17.7602 18.6518 16.4446C19.5308 15.129 20 13.5823 20 12C20 9.87827 19.1571 7.84344 17.6569 6.34315C16.1566 4.84285 14.1217 4 12 4ZM15.93 9.48L14.62 15.67C14.52 16.11 14.26 16.21 13.89 16.01L11.89 14.53L10.89 15.46C10.8429 15.5215 10.7824 15.5715 10.7131 15.6062C10.6438 15.6408 10.5675 15.6592 10.49 15.66L10.63 13.66L14.33 10.31C14.5 10.17 14.33 10.09 14.09 10.23L9.55 13.08L7.55 12.46C7.12 12.33 7.11 12.03 7.64 11.83L15.35 8.83C15.73 8.72 16.05 8.94 15.93 9.48Z"/>
        </symbol>
        <symbol viewBox="0 0 24 24" id="viber">
            <path d="M19.3438 3.94922C18.8477 3.49219 16.8399 2.03516 12.3633 2.01562C12.3633 2.01562 7.08595 1.69922 4.51563 4.05859C3.08595 5.48828 2.58204 7.58594 2.52735 10.1836C2.47267 12.7812 2.40626 17.6484 7.09766 18.9687H7.10157L7.09766 20.9844C7.09766 20.9844 7.06641 21.8008 7.60548 21.9648C8.25391 22.168 8.63673 21.5469 9.25782 20.8789C9.59766 20.5117 10.0664 19.9727 10.4219 19.5625C13.6328 19.832 16.0977 19.2148 16.3789 19.125C17.0274 18.9141 20.6953 18.4453 21.2891 13.5781C21.9063 8.55469 20.9922 5.38281 19.3438 3.94922ZM19.8867 13.2109C19.3828 17.2734 16.4102 17.5312 15.8633 17.707C15.6289 17.7812 13.4609 18.3203 10.7383 18.1445C10.7383 18.1445 8.70704 20.5937 8.07423 21.2305C7.8672 21.4375 7.64063 21.418 7.64454 21.0078C7.64454 20.7383 7.66016 17.6602 7.66016 17.6602C7.65626 17.6602 7.65626 17.6602 7.66016 17.6602C3.6836 16.5586 3.91798 12.4141 3.96095 10.2461C4.00392 8.07812 4.41407 6.30078 5.62501 5.10547C7.80079 3.13281 12.2813 3.42578 12.2813 3.42578C16.0664 3.44141 17.8789 4.58203 18.3008 4.96484C19.6953 6.16016 20.4063 9.01953 19.8867 13.2109ZM14.457 10.0547C14.4727 10.3906 13.9688 10.4141 13.9531 10.0781C13.9102 9.21875 13.5078 8.80078 12.6797 8.75391C12.3438 8.73437 12.375 8.23047 12.707 8.25C13.7969 8.30859 14.4024 8.93359 14.457 10.0547ZM15.25 10.4961C15.2891 8.83984 14.2539 7.54297 12.2891 7.39844C11.957 7.375 11.9922 6.87109 12.3242 6.89453C14.5899 7.05859 15.7969 8.61719 15.7539 10.5078C15.75 10.8438 15.2422 10.8281 15.25 10.4961ZM17.0859 11.0195C17.0899 11.3555 16.582 11.3594 16.582 11.0234C16.5586 7.83984 14.4375 6.10547 11.8633 6.08594C11.5313 6.08203 11.5313 5.58203 11.8633 5.58203C14.7422 5.60156 17.0586 7.58984 17.0859 11.0195ZM16.6445 14.8516V14.8594C16.2227 15.6016 15.4336 16.4219 14.6211 16.1602L14.6133 16.1484C13.7891 15.918 11.8477 14.918 10.6211 13.9414C9.98829 13.4414 9.41016 12.8516 8.96485 12.2852C8.56251 11.7812 8.15626 11.1836 7.76173 10.4648C6.9297 8.96094 6.7461 8.28906 6.7461 8.28906C6.48438 7.47656 7.30079 6.6875 8.04688 6.26562H8.0547C8.41407 6.07812 8.75782 6.14062 8.98829 6.41797C8.98829 6.41797 9.47267 6.99609 9.6797 7.28125C9.87501 7.54687 10.1367 7.97266 10.2734 8.21094C10.5117 8.63672 10.3633 9.07031 10.1289 9.25L9.66017 9.625C9.42188 9.81641 9.45313 10.1719 9.45313 10.1719C9.45313 10.1719 10.1484 12.8008 12.7461 13.4648C12.7461 13.4648 13.1016 13.4961 13.293 13.2578L13.668 12.7891C13.8477 12.5547 14.2813 12.4062 14.707 12.6445C15.2813 12.9687 16.0117 13.4727 16.4961 13.9297C16.7695 14.1523 16.832 14.4922 16.6445 14.8516Z"/>
        </symbol>
        <symbol viewBox="0 0 40 40" id="fb">
            <path fill="#8bb7f0" d="M2.5 2.5H37.5V37.5H2.5z"/>
            <path fill="#4e7ab5" d="M37,3v34H3V3H37 M38,2H2v36h36V2L38,2z"/>
            <path fill="#fff" d="M27,37V24h4.93l0.698-5H27v-3.384c0-1.568,0.702-2.636,2.95-2.636L33,12.979V8.225	c-0.496-0.066-2.381-0.213-4.361-0.213c-4.134,0-6.639,2.523-6.639,7.157V19h-5v5h5v13H27z"/>
        </symbol>
        <symbol viewBox="0 0 48 48" id="google">
            <path fill="#FFC107" d="M43.611,20.083H42V20H24v8h11.303c-1.649,4.657-6.08,8-11.303,8c-6.627,0-12-5.373-12-12c0-6.627,5.373-12,12-12c3.059,0,5.842,1.154,7.961,3.039l5.657-5.657C34.046,6.053,29.268,4,24,4C12.955,4,4,12.955,4,24c0,11.045,8.955,20,20,20c11.045,0,20-8.955,20-20C44,22.659,43.862,21.35,43.611,20.083z"/>
            <path fill="#FF3D00" d="M6.306,14.691l6.571,4.819C14.655,15.108,18.961,12,24,12c3.059,0,5.842,1.154,7.961,3.039l5.657-5.657C34.046,6.053,29.268,4,24,4C16.318,4,9.656,8.337,6.306,14.691z"/>
            <path fill="#4CAF50" d="M24,44c5.166,0,9.86-1.977,13.409-5.192l-6.19-5.238C29.211,35.091,26.715,36,24,36c-5.202,0-9.619-3.317-11.283-7.946l-6.522,5.025C9.505,39.556,16.227,44,24,44z"/>
            <path fill="#1976D2" d="M43.611,20.083H42V20H24v8h11.303c-0.792,2.237-2.231,4.166-4.087,5.571c0.001-0.001,0.002-0.001,0.003-0.002l6.19,5.238C36.971,39.205,44,34,44,24C44,22.659,43.862,21.35,43.611,20.083z"/>
        </symbol>
        <symbol viewBox="0 0 48 48" id="insta">
            <radialGradient id="yOrnnhliCrdS2gy~4tD8ma" cx="19.38" cy="42.035" r="44.899" gradientUnits="userSpaceOnUse"><stop offset="0" stop-color="#fd5"/><stop offset=".328" stop-color="#ff543f"/><stop offset=".348" stop-color="#fc5245"/><stop offset=".504" stop-color="#e64771"/><stop offset=".643" stop-color="#d53e91"/><stop offset=".761" stop-color="#cc39a4"/><stop offset=".841" stop-color="#c837ab"/></radialGradient><path fill="url(#yOrnnhliCrdS2gy~4tD8ma)" d="M34.017,41.99l-20,0.019c-4.4,0.004-8.003-3.592-8.008-7.992l-0.019-20	c-0.004-4.4,3.592-8.003,7.992-8.008l20-0.019c4.4-0.004,8.003,3.592,8.008,7.992l0.019,20	C42.014,38.383,38.417,41.986,34.017,41.99z"/><radialGradient id="yOrnnhliCrdS2gy~4tD8mb" cx="11.786" cy="5.54" r="29.813" gradientTransform="matrix(1 0 0 .6663 0 1.849)" gradientUnits="userSpaceOnUse"><stop offset="0" stop-color="#4168c9"/><stop offset=".999" stop-color="#4168c9" stop-opacity="0"/></radialGradient><path fill="url(#yOrnnhliCrdS2gy~4tD8mb)" d="M34.017,41.99l-20,0.019c-4.4,0.004-8.003-3.592-8.008-7.992l-0.019-20	c-0.004-4.4,3.592-8.003,7.992-8.008l20-0.019c4.4-0.004,8.003,3.592,8.008,7.992l0.019,20	C42.014,38.383,38.417,41.986,34.017,41.99z"/><path fill="#fff" d="M24,31c-3.859,0-7-3.14-7-7s3.141-7,7-7s7,3.14,7,7S27.859,31,24,31z M24,19c-2.757,0-5,2.243-5,5	s2.243,5,5,5s5-2.243,5-5S26.757,19,24,19z"/><circle cx="31.5" cy="16.5" r="1.5" fill="#fff"/><path fill="#fff" d="M30,37H18c-3.859,0-7-3.14-7-7V18c0-3.86,3.141-7,7-7h12c3.859,0,7,3.14,7,7v12	C37,33.86,33.859,37,30,37z M18,13c-2.757,0-5,2.243-5,5v12c0,2.757,2.243,5,5,5h12c2.757,0,5-2.243,5-5V18c0-2.757-2.243-5-5-5H18z"/>
        </symbol>
        <symbol viewBox="0 0 50 50" id="main">
        <path d="M 24.962891 1.0546875 A 1.0001 1.0001 0 0 0 24.384766 1.2636719 L 1.3847656 19.210938 A 1.0005659 1.0005659 0 0 0 2.6152344 20.789062 L 4 19.708984 L 4 46 A 1.0001 1.0001 0 0 0 5 47 L 18.832031 47 A 1.0001 1.0001 0 0 0 19.158203 47 L 30.832031 47 A 1.0001 1.0001 0 0 0 31.158203 47 L 45 47 A 1.0001 1.0001 0 0 0 46 46 L 46 19.708984 L 47.384766 20.789062 A 1.0005657 1.0005657 0 1 0 48.615234 19.210938 L 41 13.269531 L 41 6 L 35 6 L 35 8.5859375 L 25.615234 1.2636719 A 1.0001 1.0001 0 0 0 24.962891 1.0546875 z M 25 3.3222656 L 44 18.148438 L 44 45 L 32 45 L 32 26 L 18 26 L 18 45 L 6 45 L 6 18.148438 L 25 3.3222656 z M 37 8 L 39 8 L 39 11.708984 L 37 10.146484 L 37 8 z M 20 28 L 30 28 L 30 45 L 20 45 L 20 28 z"/>
        </symbol>
        <symbol viewBox="0 0 48 48" id="twit">
        <path fill="#03A9F4" d="M42,12.429c-1.323,0.586-2.746,0.977-4.247,1.162c1.526-0.906,2.7-2.351,3.251-4.058c-1.428,0.837-3.01,1.452-4.693,1.776C34.967,9.884,33.05,9,30.926,9c-4.08,0-7.387,3.278-7.387,7.32c0,0.572,0.067,1.129,0.193,1.67c-6.138-0.308-11.582-3.226-15.224-7.654c-0.64,1.082-1,2.349-1,3.686c0,2.541,1.301,4.778,3.285,6.096c-1.211-0.037-2.351-0.374-3.349-0.914c0,0.022,0,0.055,0,0.086c0,3.551,2.547,6.508,5.923,7.181c-0.617,0.169-1.269,0.263-1.941,0.263c-0.477,0-0.942-0.054-1.392-0.135c0.94,2.902,3.667,5.023,6.898,5.086c-2.528,1.96-5.712,3.134-9.174,3.134c-0.598,0-1.183-0.034-1.761-0.104C9.268,36.786,13.152,38,17.321,38c13.585,0,21.017-11.156,21.017-20.834c0-0.317-0.01-0.633-0.025-0.945C39.763,15.197,41.013,13.905,42,12.429"/>
        </symbol>
        <symbol viewBox="0 0 48 48" id="cursor">
        <path fill="#35c1f1" d="M14,7.054v30.663c0,0.91,1.062,1.407,1.761,0.824l7.078-5.903l4.664,10.728	c0.232,0.533,0.851,0.777,1.384,0.545l1.865-0.811L14.634,6.091C14.276,6.246,14,6.593,14,7.054z"/><linearGradient id="rZhYTz_WbDq4~sF07d3Vpa" x1="21.384" x2="35.554" y1="6.317" y2="39.054" gradientUnits="userSpaceOnUse"><stop offset="0" stop-color="#46dff9"/><stop offset="1" stop-color="#07d6f9"/></linearGradient><path fill="url(#rZhYTz_WbDq4~sF07d3Vpa)" d="M33.089,40.938l-4.628-10.647l8.1-0.726c0.907-0.081,1.307-1.184,0.663-1.828L15.796,6.31	c-0.336-0.336-0.793-0.379-1.162-0.219l16.118,37.011l1.792-0.779C33.077,42.091,33.321,41.471,33.089,40.938z"/>
        <path fill="#199be2" d="M33.089,40.938l-4.628-10.647l8.1-0.726c0.907-0.081,1.307-1.184,0.663-1.828L15.796,6.31	c-0.336-0.336-0.793-0.379-1.162-0.219l16.118,37.011l1.792-0.779C33.077,42.091,33.321,41.471,33.089,40.938z"/>
        </symbol>
        <symbol id="setting" aria-hidden="true" viewBox="0 0 24 24">
        <g stroke-linecap="round" stroke-linejoin="round" stroke-width="1.5"><path d="M10.325 4.317c.426-1.756 2.924-1.756 3.35 0a1.724 1.724 0 0 0 2.573 1.066c1.543-.94 3.31.826 2.37 2.37a1.724 1.724 0 0 0 1.065 2.572c1.756.426 1.756 2.924 0 3.35a1.724 1.724 0 0 0-1.066 2.573c.94 1.543-.826 3.31-2.37 2.37a1.724 1.724 0 0 0-2.572 1.065c-.426 1.756-2.924 1.756-3.35 0a1.724 1.724 0 0 0-2.573-1.066c-1.543.94-3.31-.826-2.37-2.37a1.724 1.724 0 0 0-1.065-2.572c-1.756-.426-1.756-2.924 0-3.35a1.724 1.724 0 0 0 1.066-2.573c-.94-1.543.826-3.31 2.37-2.37c1 .608 2.296.07 2.572-1.065z"></path><path d="M9 12a3 3 0 1 0 6 0a3 3 0 0 0-6 0"></path></g>
        </symbol>
    </svg>